<svg width="514" height="482" viewBox="0 0 514 482" fill="none" xmlns="http://www.w3.org/2000/svg">
<path d="M177.862 385.767C192.587 382.053 206.777 376.345 219.974 368.726C224.985 365.833 229.799 362.67 234.438 359.297C200.297 323.014 180.999 274.963 180.999 224.967C180.999 169.098 205.068 115.664 247.035 78.3645L257 69.5095L266.965 78.3655C290.29 99.0965 308.076 124.815 319.284 153.163C343.341 158.538 366.704 167.022 388.726 178.447C383.29 148.961 372.713 120.573 357.369 94.6895C334.865 56.7265 302.745 25.0205 264.482 2.9995C259.85 0.3335 254.15 0.3335 249.518 2.9995C211.168 25.0715 178.997 56.8585 156.481 94.9265C133.269 134.17 121 179.137 121 224.966C121 270.795 133.269 315.763 156.48 355.008C162.859 365.791 170.013 376.07 177.862 385.767V385.767Z" fill="#38A169"/>
<path d="M359.979 350.672C366.147 339.698 371.48 328.301 375.956 316.591C365.416 305.721 353.362 296.248 340.027 288.549C335.063 285.683 329.959 283.087 324.739 280.764C310.461 328.688 278.423 369.621 234.974 394.707C186.59 422.642 128.279 428.514 74.994 410.819L62.342 406.618L65.029 393.56C71.363 362.785 84.88 334.341 104.032 310.358C96.691 286.868 92.384 262.427 91.286 237.654C68.333 257.125 48.922 280.537 34.093 306.858C12.383 345.389 0.940983 389.144 0.999983 433.392C1.00798 438.737 3.85698 443.673 8.48198 446.352C46.685 468.478 90.203 480.441 134.332 480.949C179.812 481.472 224.806 469.714 264.448 446.948L265.444 446.373C305.013 423.407 337.691 390.32 359.979 350.672V350.672Z" fill="#38A169"/>
<path d="M479.907 306.357C457.525 266.633 424.718 233.525 385.028 210.61C345.339 187.695 300.262 175.837 254.669 176.317C242.17 176.449 229.719 177.5 217.424 179.44C213.207 194.122 210.999 209.432 210.999 224.968C210.999 230.59 211.293 236.177 211.854 241.713C260.383 230.246 311.693 237.551 355.027 262.57C403.411 290.505 437.652 338.066 448.97 393.059L451.658 406.118L439.006 410.318C409.301 420.183 378.035 422.715 347.796 418.191C331.172 436.317 312.217 452.312 291.357 465.692C319.639 475.75 349.546 480.796 379.668 480.449C423.797 479.941 467.315 467.978 505.518 445.852C510.143 443.174 512.993 438.237 513 432.892C513.059 388.645 501.617 344.889 479.907 306.357V306.357Z" fill="#38A169"/>
</svg>
